<svg width="900" height="520" viewBox="0 0 900 520" fill="none" xmlns="http://www.w3.org/2000/svg">
  <rect width="900" height="520" rx="28" fill="#F7FEFD"/>
  <rect x="36" y="32" width="828" height="456" rx="24" fill="#FFFFFF" stroke="#D7F4F0"/>
  <text x="64" y="82" fill="#53696A" font-family="Arial, Helvetica, sans-serif" font-size="28" font-weight="700">Exact URL Dedup</text>
  <text x="64" y="110" fill="#86A1A1" font-family="Arial, Helvetica, sans-serif" font-size="16">Review duplicate groups before closing them</text>
  <rect x="64" y="146" width="360" height="132" rx="22" fill="#FCFFFE" stroke="#DBF4F1"/>
  <rect x="64" y="298" width="360" height="132" rx="22" fill="#FCFFFE" stroke="#DBF4F1"/>
  <rect x="444" y="146" width="360" height="132" rx="22" fill="#FCFFFE" stroke="#DBF4F1"/>
  <rect x="444" y="298" width="360" height="132" rx="22" fill="#FCFFFE" stroke="#DBF4F1"/>
  <rect x="88" y="172" width="18" height="18" rx="4" fill="#5FC9C0"/>
  <rect x="118" y="172" width="214" height="14" rx="7" fill="#7EDDD5"/>
  <rect x="88" y="204" width="290" height="10" rx="5" fill="#DDF6F3"/>
  <rect x="88" y="226" width="92" height="20" rx="10" fill="#EAFBFA"/>
  <rect x="192" y="226" width="118" height="20" rx="10" fill="#D8F5F1"/>
  <rect x="468" y="172" width="18" height="18" rx="4" fill="#5FC9C0"/>
  <rect x="498" y="172" width="230" height="14" rx="7" fill="#7EDDD5"/>
  <rect x="468" y="204" width="300" height="10" rx="5" fill="#DDF6F3"/>
  <rect x="468" y="226" width="98" height="20" rx="10" fill="#EAFBFA"/>
  <rect x="578" y="226" width="112" height="20" rx="10" fill="#D8F5F1"/>
  <rect x="88" y="324" width="18" height="18" rx="4" fill="#5FC9C0"/>
  <rect x="118" y="324" width="198" height="14" rx="7" fill="#7EDDD5"/>
  <rect x="88" y="356" width="286" height="10" rx="5" fill="#DDF6F3"/>
  <rect x="88" y="378" width="94" height="20" rx="10" fill="#EAFBFA"/>
  <rect x="194" y="378" width="124" height="20" rx="10" fill="#D8F5F1"/>
  <rect x="468" y="324" width="18" height="18" rx="4" fill="#5FC9C0"/>
  <rect x="498" y="324" width="210" height="14" rx="7" fill="#7EDDD5"/>
  <rect x="468" y="356" width="300" height="10" rx="5" fill="#DDF6F3"/>
  <rect x="468" y="378" width="100" height="20" rx="10" fill="#EAFBFA"/>
  <rect x="580" y="378" width="108" height="20" rx="10" fill="#D8F5F1"/>
</svg>
