<svg width="900" height="520" viewBox="0 0 900 520" fill="none" xmlns="http://www.w3.org/2000/svg">
  <rect width="900" height="520" rx="28" fill="#F7FEFD"/>
  <rect x="36" y="32" width="828" height="456" rx="24" fill="#FFFFFF" stroke="#D7F4F0"/>
  <text x="64" y="82" fill="#53696A" font-family="Arial, Helvetica, sans-serif" font-size="28" font-weight="700">Settings</text>
  <text x="64" y="110" fill="#86A1A1" font-family="Arial, Helvetica, sans-serif" font-size="16">Two cards for auto sleep and auto dedup</text>
  <rect x="64" y="146" width="364" height="248" rx="24" fill="#FCFFFE" stroke="#DBF4F1"/>
  <rect x="472" y="146" width="364" height="248" rx="24" fill="#FCFFFE" stroke="#DBF4F1"/>
  <text x="92" y="188" fill="#4E6767" font-family="Arial, Helvetica, sans-serif" font-size="22" font-weight="700">Auto Sleep</text>
  <text x="500" y="188" fill="#4E6767" font-family="Arial, Helvetica, sans-serif" font-size="22" font-weight="700">Auto Dedup</text>
  <rect x="92" y="216" width="220" height="12" rx="6" fill="#DDF6F3"/>
  <rect x="500" y="216" width="230" height="12" rx="6" fill="#DDF6F3"/>
  <rect x="92" y="258" width="280" height="52" rx="18" fill="#F4FEFC" stroke="#D6F0EC"/>
  <rect x="92" y="334" width="18" height="18" rx="4" fill="#5FC9C0"/>
  <rect x="122" y="336" width="160" height="12" rx="6" fill="#9FE8E1"/>
  <rect x="500" y="258" width="280" height="52" rx="18" fill="#F4FEFC" stroke="#D6F0EC"/>
  <rect x="500" y="334" width="18" height="18" rx="4" fill="#5FC9C0"/>
  <rect x="530" y="336" width="198" height="12" rx="6" fill="#9FE8E1"/>
  <rect x="500" y="372" width="280" height="52" rx="18" fill="#F4FEFC" stroke="#D6F0EC"/>
  <rect x="326" y="438" width="248" height="42" rx="21" fill="#5FC9C0"/>
  <text x="387" y="465" fill="white" font-family="Arial, Helvetica, sans-serif" font-size="18" font-weight="700">Save Settings</text>
</svg>
